<svg xmlns="http://www.w3.org/2000/svg" version="1.1" xmlns:xlink="http://www.w3.org/1999/xlink" xmlns:svgjs="http://svgjs.com/svgjs" width="1440" height="560" preserveAspectRatio="none" viewBox="0 0 1440 560"><g mask="url(&quot;#SvgjsMask1128&quot;)" fill="none"><rect width="1440" height="560" x="0" y="0" fill="url(#SvgjsLinearGradient1129)"></rect><path d="M1358.7842731444039 528.913077013606L1395.3514103522295 370.5234044062709 1200.3946005370688 492.3459398057804z" fill="rgba(28, 83, 142, 0.4)" class="triangle-float2"></path><path d="M289.14190194531295 355.9427217610545L392.55998936513447 272.19640582491763 308.8136734289976 168.77831840509612 205.3955860091761 252.52463434123297z" fill="rgba(28, 83, 142, 0.4)" class="triangle-float3"></path><path d="M452.15639800518846 266.6248554711051L550.1649485826409 273.47828095619064 557.0183740677264 175.46973037873818 459.009823490274 168.61630489365265z" fill="rgba(28, 83, 142, 0.4)" class="triangle-float3"></path><path d="M333.1949296267562-68.7943380298641L231.2625836398693 48.46541246737192 450.45468012399226 33.138007957022836z" fill="rgba(28, 83, 142, 0.4)" class="triangle-float2"></path><path d="M1191.9015961647212 559.9483019473869L1337.9541986473494 534.1952875270114 1166.1485817443458 413.89569946475876z" fill="rgba(28, 83, 142, 0.4)" class="triangle-float3"></path><path d="M1480.34463737385 522.7139784551903L1428.063245679279 453.3342283398013 1358.68349556389 505.61562003437245 1410.964887258461 574.9953701497615z" fill="rgba(28, 83, 142, 0.4)" class="triangle-float2"></path><path d="M107.91816486534596 129.01653871915232L206.75748841259187 11.224419792140495 88.96536948558004-87.61490375510542-9.87395406166587 30.17721517190641z" fill="rgba(28, 83, 142, 0.4)" class="triangle-float1"></path><path d="M56.9374122465306 563.7209424465162L175.00056328043905 503.70642145748366 79.01926142536817 438.9662158986146z" fill="rgba(28, 83, 142, 0.4)" class="triangle-float3"></path><path d="M244.53109493439246 519.9515191893471L324.714011818418 589.7877372357856 344.0395061767233 498.8684345971459z" fill="rgba(28, 83, 142, 0.4)" class="triangle-float2"></path><path d="M118.165,378.846C161.516,380.888,205.668,360.236,225.26,321.511C243.509,285.441,224.741,244.799,203.334,210.508C183.564,178.838,155.499,149.776,118.165,149.959C81.074,150.141,52.571,178.983,34.434,211.337C16.772,242.844,11.079,279.873,27.229,312.182C45.24,348.214,77.927,376.951,118.165,378.846" fill="rgba(28, 83, 142, 0.4)" class="triangle-float3"></path><path d="M78.342,239.612C125.728,242.51,171.324,214.224,192.616,171.791C212.189,132.784,195.962,88.271,172.861,51.244C151.42,16.879,118.708,-8.014,78.342,-11.369C30.69,-15.33,-25.19,-9.152,-47.968,32.89C-70.218,73.959,-38.397,119.295,-14.044,159.153C8.777,196.502,34.655,236.941,78.342,239.612" fill="rgba(28, 83, 142, 0.4)" class="triangle-float1"></path><path d="M1266.569,498.947C1307.938,496.197,1346.67,480.443,1369.878,446.087C1396.535,406.626,1412.876,356.89,1391.165,314.506C1367.879,269.049,1317.511,240.747,1266.569,244.412C1220.37,247.736,1193.397,290.719,1169.584,330.447C1144.733,371.906,1112.267,419.714,1136.38,461.607C1160.518,503.544,1218.288,502.156,1266.569,498.947" fill="rgba(28, 83, 142, 0.4)" class="triangle-float1"></path><path d="M1112.005,165.152C1144.396,165.046,1168.414,138.844,1184.529,110.746C1200.542,82.825,1209.398,49.774,1194.555,21.214C1178.653,-9.383,1146.477,-29.654,1112.005,-28.799C1078.793,-27.975,1051.673,-4.288,1036.257,25.141C1021.981,52.394,1024.014,84.163,1038.654,111.223C1054.131,139.831,1079.479,165.258,1112.005,165.152" fill="rgba(28, 83, 142, 0.4)" class="triangle-float2"></path></g><defs><mask id="SvgjsMask1128"><rect width="1440" height="560" fill="#ffffff"></rect></mask><linearGradient x1="15.28%" y1="-39.29%" x2="84.72%" y2="139.29%" gradientUnits="userSpaceOnUse" id="SvgjsLinearGradient1129"><stop stop-color="#0e2a47" offset="0"></stop><stop stop-color="rgba(0, 73, 158, 0.95)" offset="1"></stop></linearGradient><style>
            @keyframes float1 {
                0%{transform: translate(0, 0)}
                50%{transform: translate(-10px, 0)}
                100%{transform: translate(0, 0)}
            }

            .triangle-float1 {
                animation: float1 5s infinite;
            }

            @keyframes float2 {
                0%{transform: translate(0, 0)}
                50%{transform: translate(-5px, -5px)}
                100%{transform: translate(0, 0)}
            }

            .triangle-float2 {
                animation: float2 4s infinite;
            }

            @keyframes float3 {
                0%{transform: translate(0, 0)}
                50%{transform: translate(0, -10px)}
                100%{transform: translate(0, 0)}
            }

            .triangle-float3 {
                animation: float3 6s infinite;
            }
        </style></defs></svg>